<?xml version="1.0" encoding="utf-8"?>
<!-- Generator: Adobe Illustrator 22.0.1, SVG Export Plug-In . SVG Version: 6.00 Build 0)  -->
<svg version="1.1" id="Layer_1" xmlns="http://www.w3.org/2000/svg" xmlns:xlink="http://www.w3.org/1999/xlink" x="0px" y="0px"
	 viewBox="0 0 800 800" style="enable-background:new 0 0 800 800;" xml:space="preserve">
<style type="text/css">
	.st0{fill:#545966;}
	.st1{fill:#BC4D27;}
	.st2{fill:none;}
</style>
<g>
	<path class="st0" d="M0,399.2c0-72.6,17.9-139.5,53.8-200.8c35.9-61.3,84.5-109.7,146-145.2C261.2,17.8,328.1,0,400.4,0
		C472.7,0,539.5,18,601,54.1c61.4,36,110,84.8,145.6,146.3c35.6,61.5,53.4,128.3,53.4,200.4c0,72.1-17.7,138.7-53.1,200
		c-35.4,61.3-83.4,109.8-144,145.6C542.2,782.1,476,800,404.3,800h-3.9c-72.3-0.5-139.1-18.8-200.6-54.8
		c-61.4-36-110.1-84.7-146-145.9C17.9,538,0,471.3,0,399.2z M19.4,399.2c0,68.5,17,131.9,51.1,190.3c34.1,58.4,80.4,104.9,139,139.4
		c58.6,34.5,122.2,52,190.9,52.5h3.1c68.2,0,131.3-17.1,189.4-51.3c58.1-34.2,103.9-80.6,137.5-139c33.6-58.4,50.3-121.9,50.3-190.3
		c0-51.5-10.1-100.8-30.2-147.9c-20.1-47.1-47.1-87.8-80.9-122C635.7,96.7,595.3,69.4,548.3,49c-47-20.3-96.3-30.5-147.9-30.5
		c-104.8,0-194.5,37.1-269.1,111.2c-74.6,74.1-111.9,163.5-111.9,268V399.2z M37.2,399.2c0-99.9,35.5-185.2,106.5-256
		c71-70.8,156.6-106.2,256.7-106.2c99.6,0,185,35.7,256,106.9c71,71.3,106.5,156.9,106.5,256.8c0,65.4-16,125.9-48,181.5
		c-32,55.6-75.5,99.6-130.5,132c-55,32.4-115,48.6-180.1,48.6h-3.9c-49.1-0.5-96-10.4-140.9-29.7c-44.9-19.3-83.6-45.3-116.2-78
		c-32.5-32.7-58.3-71.3-77.4-115.8C46.7,494.9,37.2,448.1,37.2,399.2z M399.6,47.9L96,223.2v351.4l303.6,176.1l306.7-176.1V223.2
		L399.6,47.9z"/>
	<path class="st1" d="M245.5,165.3l48-27.8v525.9l-48-27.8V376.8h-79V590l-48-27.8V238.6l48-27.8V329h79V165.3z"/>
	<path class="st1" d="M312.9,673.4V125.1l86.7-50.2l88.3,51v138.2l-48-27v-84.9l-40.3-21.6l-38.7,21.6v494.2l38.7,21.6l40.3-23.2
		V533.6l48-27.8v166.8l-88.3,51L312.9,673.4z"/>
	<path class="st1" d="M634.3,291.9v-27l-79-45.6v108.9h127v232.4L507.3,661V459.5l48,23.9v94.2l79-44V375.3h-127V137.5l175,98.8
		v40.2L634.3,291.9z"/>
</g>
<rect x="561.5" y="337" class="st2" width="141.2" height="10.1"/>
</svg>
